<?xml version="1.0" encoding="UTF-8"?>
<svg id="Layer_2" data-name="Layer 2" xmlns="http://www.w3.org/2000/svg" viewBox="0 0 1061.66 238.8">
  <defs>
    <style>
      .cls-1 {
        fill: #f4a950;
      }
    </style>
  </defs>
  <g id="Layer_1-2" data-name="Layer 1">
    <g>
      <path class="cls-1" d="m152.4,86c-2.12-1.77-52.59-8.53-80.2,4.6-6.96,3.31-13.2,7.2-18.4,12.4s-9.27,11.34-12.2,18.4c-2.94,7.07-4.4,14.6-4.4,22.6s1.46,15.47,4.4,22.4c2.93,6.94,7,13,12.2,18.2,5.2,5.2,11.33,9.34,18.4,12.4,7.06,3.07,14.6,4.6,22.6,4.6s15.46-1.53,22.4-4.6c6.93-3.06,13-7.2,18.2-12.4,5.2-5.2,9.33-11.26,12.4-18.2,3.06-6.93,4.6-14.4,4.6-22.4V0h37.2v144c0,13.07-2.47,25.34-7.4,36.8-4.94,11.47-11.74,21.54-20.4,30.2-8.67,8.67-18.74,15.47-30.2,20.4-11.47,4.94-23.74,7.4-36.8,7.4s-25.34-2.46-36.8-7.4c-11.47-4.93-21.54-11.73-30.2-20.4-8.67-8.66-15.47-18.73-20.4-30.2-4.94-11.46-7.4-23.73-7.4-36.8s2.46-25.4,7.4-37c4.93-11.6,11.73-21.66,20.4-30.2,8.66-8.53,18.98-14.8,30.2-20.4,36.8-18.37,81.33-7.6,94.4-7.6v37.2Z"/>
      <path class="cls-1" d="m366.46,156.6h-116c4.26,12,11.6,21.87,22,29.6,10.4,7.74,22.4,11.6,36,11.6,10.13,0,19.53-2.26,28.2-6.8,8.66-4.53,15.8-10.66,21.4-18.4h42c-3.74,9.07-8.6,17.4-14.6,25-6,7.6-13,14.2-21,19.8-8,5.6-16.74,9.94-26.2,13-9.47,3.06-19.4,4.6-29.8,4.6-13.6,0-26.4-2.6-38.4-7.8s-22.47-12.26-31.4-21.2c-8.94-8.93-16-19.4-21.2-31.4-5.2-12-7.8-24.8-7.8-38.4s2.6-26.46,7.8-38.6c5.2-12.13,12.26-22.66,21.2-31.6s19.4-16,31.4-21.2c12-5.2,24.8-7.8,38.4-7.8s26.4,2.6,38.4,7.8c12,5.2,22.46,12.27,31.4,21.2,8.93,8.94,16,19.47,21.2,31.6,5.2,12.14,7.8,25,7.8,38.6,0,7.2-.8,14-2.4,20.4h-38.4Zm-117.6-37.2h118.8c-3.74-13.06-10.94-23.86-21.6-32.4-10.67-8.53-23.2-12.8-37.6-12.8s-27,4.27-37.8,12.8c-10.8,8.54-18.07,19.34-21.8,32.4Z"/>
      <path class="cls-1" d="m593.26,203c-9.34,9.34-19.8,16.34-31.4,21-11.6,4.67-23.54,7-35.8,7s-24.2-2.33-35.8-7c-11.6-4.66-22.07-11.66-31.4-21-9.34-9.06-16.27-19.46-20.8-31.2-4.54-11.73-6.8-23.66-6.8-35.8s2.26-24,6.8-35.6c4.53-11.6,11.46-22.06,20.8-31.4s19.8-16.33,31.4-21c11.6-4.66,23.53-7,35.8-7s24.2,2.34,35.8,7c11.6,4.67,22.06,11.67,31.4,21l-26.4,26.4c-9.07-9.06-18.54-14.6-28.4-16.6-9.87-2-19.34-1.46-28.4,1.6-9.07,3.07-17.14,8.14-24.2,15.2s-12.14,15.14-15.2,24.2c-3.07,9.07-3.67,18.6-1.8,28.6,1.86,10,7.33,19.54,16.4,28.6,5.6,5.6,11.93,9.8,19,12.6,7.06,2.8,14.33,4.2,21.8,4.2s14.73-1.4,21.8-4.2c7.06-2.8,13.4-7,19-12.6l26.4,26Z"/>
      <g>
        <polygon class="cls-1" points="699 133.67 709.91 122.76 720.82 111.85 709.91 100.94 699 111.85 688.1 122.76 666.28 100.94 655.37 111.85 677.19 133.67 666.28 144.58 655.37 155.49 666.28 166.39 688.1 144.58 699 155.49 709.91 166.39 720.82 155.49 709.91 144.58 699 133.67"/>
        <path class="cls-1" d="m775.5,99.69c-4.94-11.6-11.74-21.66-20.4-30.2-8.67-8.53-18.74-15.33-30.2-20.4-11.47-5.06-23.74-7.6-36.8-7.6s-25.34,2.54-36.8,7.6c-11.47,5.07-21.54,11.87-30.2,20.4-8.67,8.54-15.47,18.6-20.4,30.2-4.94,11.6-7.4,23.94-7.4,37s2.46,25.34,7.4,36.8c4.93,11.47,11.07,22.25,20.4,30.2,0,0,13.03,16.04,41.97,23.24,32.21,8.02,69.78,4.56,82.85,4.56h37v-94.8c0-13.06-2.47-25.4-7.4-37Zm-32.87,77.61l-10.91,10.91-10.91-10.91-10.91,10.91-10.91-10.91-10.91-10.91-21.82,21.82-10.91-10.91-10.91,10.91-10.91-10.91,10.91-10.91-10.91-10.91,10.91-10.91,10.91-10.91-21.82-21.82,10.91-10.91-10.91-10.91,10.91-10.91,10.91,10.91,10.91-10.91,21.82,21.82,10.91-10.91,10.91-10.91,10.91,10.91,10.91-10.91,10.91,10.91-10.91,10.91,10.91,10.91-10.91,10.91-10.91,10.91,10.91,10.91,10.91,10.91-10.91,10.91,10.91,10.91Z"/>
      </g>
      <path class="cls-1" d="m963.26,231v-94.8c0-8-1.54-15.53-4.6-22.6-3.07-7.06-7.2-13.2-12.4-18.4-5.2-5.2-11.27-9.33-18.2-12.4-6.94-3.06-14.4-4.6-22.4-4.6s-15.54,1.54-22.6,4.6c-7.07,3.07-13.2,7.2-18.4,12.4-5.2,5.2-9.27,11.34-12.2,18.4-2.94,7.07-4.4,14.6-4.4,22.6v94.8h-37.2v-94.8c0-13.06,2.46-25.4,7.4-37,4.93-11.6,11.73-21.66,20.4-30.2,8.66-8.53,18.73-15.33,30.2-20.4,11.46-5.06,23.73-7.6,36.8-7.6s25.33,2.54,36.8,7.6c11.46,5.07,21.53,11.87,30.2,20.4,8.66,8.54,15.46,18.6,20.4,30.2,4.93,11.6,7.4,23.94,7.4,37v94.8h-37.2Z"/>
      <path class="cls-1" d="m1061.66,231h-37.2V41.8h37.2v189.2Z"/>
    </g>
  </g>
</svg>