<?xml version="1.0" encoding="utf-8"?>
<!-- Generator: Adobe Illustrator 25.2.0, SVG Export Plug-In . SVG Version: 6.00 Build 0)  -->
<svg version="1.1" id="Layer_1" xmlns="http://www.w3.org/2000/svg" xmlns:xlink="http://www.w3.org/1999/xlink" x="0px" y="0px"
	 viewBox="0 0 595.28 841.89" style="enable-background:new 0 0 595.28 841.89;" xml:space="preserve">
<style type="text/css">
	.st0{fill:#F3A950;}
</style>
<path class="st0" d="M555,312.59l-49.48-49.48L555,213.63l-49.48-49.48l-49.48,49.48l-49.48-49.48l-49.48,49.48l-49.48,49.48
	l-98.96-98.96l-49.48,49.48l-49.48-49.48l-49.48,49.48l49.48,49.48l-49.48,49.48l98.96,98.96l-49.48,49.48L60.21,510.5l49.48,49.48
	l-49.48,49.48l49.48,49.48l49.48-49.48l49.48,49.48l98.96-98.96l49.48,49.46l49.48,49.48l49.48-49.46l49.48,49.46L555,609.46
	l-49.48-49.48L555,510.5l-49.48-49.48l-49.48-49.48l49.48-49.48L555,312.59z M406.56,362.07l-49.48,49.48l49.48,49.48l49.48,49.48
	l-49.48,49.48l-49.48-49.48l-49.48-49.48l-98.96,98.96l-49.48-49.48l49.48-49.48l49.48-49.48l-98.96-98.96l49.48-49.48l98.96,98.96
	l49.48-49.48l49.48-49.48l49.48,49.48L406.56,362.07z"/>
</svg>
