<svg width="30" height="29" viewBox="0 0 30 29" fill="none" xmlns="http://www.w3.org/2000/svg">
<path d="M9.29293 1.73999C5.13577 1.73999 1.75293 5.12283 1.75293 9.27999V19.72C1.75293 23.8771 5.13577 27.26 9.29293 27.26H19.7329C23.8901 27.26 27.2729 23.8771 27.2729 19.72V9.27999C27.2729 5.12283 23.8901 1.73999 19.7329 1.73999H9.29293ZM9.29293 2.89999H19.7329C23.2631 2.89999 26.1129 5.74983 26.1129 9.27999V19.72C26.1129 23.2502 23.2631 26.1 19.7329 26.1H9.29293C5.76277 26.1 2.91293 23.2502 2.91293 19.72V9.27999C2.91293 5.74983 5.76277 2.89999 9.29293 2.89999ZM21.4729 6.37999C21.1653 6.37999 20.8702 6.5022 20.6527 6.71975C20.4351 6.93729 20.3129 7.23234 20.3129 7.53999C20.3129 7.84764 20.4351 8.14269 20.6527 8.36023C20.8702 8.57778 21.1653 8.69999 21.4729 8.69999C21.7806 8.69999 22.0756 8.57778 22.2932 8.36023C22.5107 8.14269 22.6329 7.84764 22.6329 7.53999C22.6329 7.23234 22.5107 6.93729 22.2932 6.71975C22.0756 6.5022 21.7806 6.37999 21.4729 6.37999ZM14.5129 8.11999C10.9962 8.11999 8.13293 10.9833 8.13293 14.5C8.13293 18.0167 10.9962 20.88 14.5129 20.88C18.0296 20.88 20.8929 18.0167 20.8929 14.5C20.8929 10.9833 18.0296 8.11999 14.5129 8.11999ZM14.5129 9.27999C17.4027 9.27999 19.7329 11.6102 19.7329 14.5C19.7329 17.3898 17.4027 19.72 14.5129 19.72C11.6231 19.72 9.29293 17.3898 9.29293 14.5C9.29293 11.6102 11.6231 9.27999 14.5129 9.27999Z" fill="#F4A950"/>
</svg>
