<svg width="30" height="29" viewBox="0 0 30 29" fill="none" xmlns="http://www.w3.org/2000/svg">
<path d="M23.7929 2.32007H5.23295C3.63215 2.32007 2.33295 3.61927 2.33295 5.22007V23.7801C2.33295 25.3809 3.63215 26.6801 5.23295 26.6801H23.7929C25.3937 26.6801 26.6929 25.3809 26.6929 23.7801V5.22007C26.6929 3.61927 25.3937 2.32007 23.7929 2.32007ZM9.87295 11.6001V22.6201H6.39295V11.6001H9.87295ZM6.39295 8.39267C6.39295 7.58067 7.08895 6.96007 8.13295 6.96007C9.17695 6.96007 9.83235 7.58067 9.87295 8.39267C9.87295 9.20467 9.22335 9.86007 8.13295 9.86007C7.08895 9.86007 6.39295 9.20467 6.39295 8.39267ZM22.6329 22.6201H19.1529C19.1529 22.6201 19.1529 17.2493 19.1529 16.8201C19.1529 15.6601 18.5729 14.5001 17.1229 14.4769H17.0765C15.6729 14.4769 15.0929 15.6717 15.0929 16.8201C15.0929 17.3479 15.0929 22.6201 15.0929 22.6201H11.6129V11.6001H15.0929V13.0849C15.0929 13.0849 16.2123 11.6001 18.4627 11.6001C20.7653 11.6001 22.6329 13.1835 22.6329 16.3909V22.6201Z" fill="#F4A950"/>
</svg>
